<svg version="1.1" xmlns="http://www.w3.org/2000/svg" viewBox="0 0 855.7435167219376 689.052656740465" width="855.7435167219376" height="689.052656740465" filter="invert(93%) hue-rotate(180deg)">
  <!-- svg-source:excalidraw -->
  
  <defs>
    <style class="style-fonts">
      @font-face {
        font-family: "Virgil";
        src: url("https://excalidraw.com/Virgil.woff2");
      }
      @font-face {
        font-family: "Cascadia";
        src: url("https://excalidraw.com/Cascadia.woff2");
      }
      @font-face {
        font-family: "Assistant";
        src: url("https://excalidraw.com/Assistant-Regular.woff2");
      }
    </style>
    
  </defs>
  <rect x="0" y="0" width="855.7435167219376" height="689.052656740465" fill="#ffffff"></rect><g stroke-linecap="round" transform="translate(362.6880479572533 10) rotate(0 117 44)"><path d="M22 0 C71.51 -2.35, 123.16 -2.62, 212 0 M22 0 C66.44 -1.73, 108.7 -2.09, 212 0 M212 0 C225.43 1.79, 232.7 7.17, 234 22 M212 0 C226.62 -1.45, 232.18 6.64, 234 22 M234 22 C233.78 33.08, 236.1 46.4, 234 66 M234 22 C232.94 38.89, 233.2 54.5, 234 66 M234 66 C234.52 79.43, 225.1 88.62, 212 88 M234 66 C235.03 80.54, 225.78 86.04, 212 88 M212 88 C143.94 85.98, 73.51 87.08, 22 88 M212 88 C163.24 90.29, 114.77 90.08, 22 88 M22 88 C6.27 86.07, -0.9 79.02, 0 66 M22 88 C6.13 85.84, 1.04 79.79, 0 66 M0 66 C-0.17 50.91, 1.72 35.49, 0 22 M0 66 C0.18 54.4, -0.55 42.91, 0 22 M0 22 C-0.71 5.96, 8.87 0.86, 22 0 M0 22 C1.22 8.04, 8.52 1.37, 22 0" stroke="#1e1e1e" stroke-width="2" fill="none"></path></g><g transform="translate(439.25471360666734 41.5) rotate(0 40.43333435058594 12.5)"><text x="40.43333435058594" y="0" font-family="Virgil, Segoe UI Emoji" font-size="20px" fill="#1e1e1e" text-anchor="middle" style="white-space: pre;" direction="ltr" dominant-baseline="text-before-edge">Manager</text></g><g stroke-linecap="round"><g transform="translate(362.6880479572533 96) rotate(0 -21.5 61)"><path d="M-0.94 0.81 C-7.99 11.89, -35.86 47.48, -42.89 67.58 C-49.91 87.67, -42.96 112.36, -43.08 121.39 M0.77 0.2 C-5.85 11.42, -33.2 45.39, -40.64 65.76 C-48.08 86.12, -43.39 112.89, -43.88 122.39" stroke="#1e1e1e" stroke-width="2" fill="none"></path></g></g><mask></mask><g stroke-linecap="round"><g transform="translate(599.3752901869912 98.70804008988637) rotate(0 21.500000000000114 61.000000000000284)"><path d="M-0.92 0.41 C6.04 11.41, 35.14 46.3, 42.6 66.37 C50.05 86.45, 43.58 111.5, 43.79 120.87 M0.79 -0.42 C7.57 10.7, 34.85 47.25, 41.96 67.58 C49.07 87.92, 43.01 112.8, 43.45 121.59" stroke="#1e1e1e" stroke-width="2" fill="none"></path></g></g><mask></mask><g stroke-linecap="round" transform="translate(135.68804795725327 221) rotate(0 117 44)"><path d="M22 0 C58.51 0.9, 97.96 -0.95, 212 0 M22 0 C91.23 -1.73, 159.9 -0.22, 212 0 M212 0 C226.92 1.95, 233.35 7.95, 234 22 M212 0 C228.75 0.99, 231.72 8.56, 234 22 M234 22 C234.46 35.08, 231.92 46.21, 234 66 M234 22 C233.74 37.16, 233.78 52.93, 234 66 M234 66 C235.8 80.73, 225.54 88.78, 212 88 M234 66 C231.77 80.82, 228 89.51, 212 88 M212 88 C168.84 89, 128.51 88.05, 22 88 M212 88 C171.1 88.54, 132.29 88.18, 22 88 M22 88 C8 88.6, -1.48 80.15, 0 66 M22 88 C8.61 87.49, 1.53 80.87, 0 66 M0 66 C-0.85 50.8, -0.84 31.18, 0 22 M0 66 C0.36 52.81, 0.19 39.05, 0 22 M0 22 C1.64 6.3, 5.92 1.03, 22 0 M0 22 C1.57 5.99, 6.91 1.32, 22 0" stroke="#1971c2" stroke-width="2" fill="none"></path></g><g transform="translate(171.38804490549546 252.5) rotate(0 81.30000305175781 12.5)"><text x="81.30000305175781" y="0" font-family="Virgil, Segoe UI Emoji" font-size="20px" fill="#1971c2" text-anchor="middle" style="white-space: pre;" direction="ltr" dominant-baseline="text-before-edge">Project Manager</text></g><g stroke-linecap="round" transform="translate(596.6880479572533 221) rotate(0 117 44)"><path d="M22 0 C74.5 -0.15, 129.15 -1, 212 0 M22 0 C63.51 -1.51, 104.3 -0.05, 212 0 M212 0 C226.13 0.58, 233.7 5.44, 234 22 M212 0 C225.71 -1.28, 231.89 7.23, 234 22 M234 22 C232.83 32.57, 232.38 44.55, 234 66 M234 22 C234.18 39.98, 233.42 56.21, 234 66 M234 66 C232.32 81.78, 225.04 86.74, 212 88 M234 66 C236.13 78.73, 228.4 89.94, 212 88 M212 88 C171.89 90.04, 135.37 87.15, 22 88 M212 88 C151.16 89.83, 88.68 88.76, 22 88 M22 88 C9.04 88.95, -0.43 78.7, 0 66 M22 88 C5.54 89.67, -1.36 80.22, 0 66 M0 66 C-1.39 48.31, 0.2 34.02, 0 22 M0 66 C-0.63 55.96, -0.36 46.33, 0 22 M0 22 C-1.18 8.14, 7.34 -1.82, 22 0 M0 22 C-0.41 7.98, 6.5 -1.67, 22 0" stroke="#2f9e44" stroke-width="2" fill="none"></path></g><g transform="translate(611.3213792560814 252.5) rotate(0 102.36666870117188 12.5)"><text x="102.36666870117188" y="0" font-family="Virgil, Segoe UI Emoji" font-size="20px" fill="#2f9e44" text-anchor="middle" style="white-space: pre;" direction="ltr" dominant-baseline="text-before-edge">Department Manager</text></g><g stroke-linecap="round"><g transform="translate(246.88250108078478 314.83328125881076) rotate(0 1 32)"><path d="M-0.36 -0.74 C0.09 10.07, 1.84 54.22, 2.11 64.95 M1.65 1.48 C2 11.97, 0.87 52.78, 1.22 63.33" stroke="#1e1e1e" stroke-width="2" fill="none"></path></g></g><mask></mask><g stroke-linecap="round"><g transform="translate(724.035799409121 315.3138776952121) rotate(0 -0.5 31)"><path d="M0.24 0.43 C-0.11 10.9, -1.27 52.4, -1.66 62.75 M-1.1 -0.39 C-1.08 9.75, 0.48 50.88, 0.71 61.01" stroke="#1e1e1e" stroke-width="2" fill="none"></path></g></g><mask></mask><g stroke-linecap="round" transform="translate(608.521329216064 386.44375011747684) rotate(0 117 44)"><path d="M22 0 C87.27 2.52, 150.41 0.23, 212 0 M22 0 C83.09 0.5, 144.33 0.54, 212 0 M212 0 C225.52 -1.01, 232.87 6.69, 234 22 M212 0 C224.83 -2.25, 235.9 5.49, 234 22 M234 22 C232.88 37.11, 232.33 53.13, 234 66 M234 22 C233.53 34.16, 234.11 47.11, 234 66 M234 66 C234.92 82, 226.7 87.94, 212 88 M234 66 C232.48 79.41, 226.62 86.73, 212 88 M212 88 C175.53 90.17, 135.91 89.28, 22 88 M212 88 C149.98 87.77, 89.43 87.32, 22 88 M22 88 C7.04 88.82, -0.88 80.76, 0 66 M22 88 C7.89 88.92, 1.68 80.9, 0 66 M0 66 C-0.62 54.63, -0.58 41.71, 0 22 M0 66 C-0.73 52.12, 0.6 36.63, 0 22 M0 22 C0.13 8.28, 7.44 0.75, 22 0 M0 22 C1.58 7.9, 9.51 -0.67, 22 0" stroke="#2f9e44" stroke-width="2" fill="none"></path></g><g transform="translate(633.1713307419429 405.44375011747684) rotate(0 92.3499984741211 25)"><text x="92.3499984741211" y="0" font-family="Virgil, Segoe UI Emoji" font-size="20px" fill="#2f9e44" text-anchor="middle" style="white-space: pre;" direction="ltr" dominant-baseline="text-before-edge">submitting monthly </text><text x="92.3499984741211" y="25" font-family="Virgil, Segoe UI Emoji" font-size="20px" fill="#2f9e44" text-anchor="middle" style="white-space: pre;" direction="ltr" dominant-baseline="text-before-edge">budgets</text></g><g stroke-linecap="round" transform="translate(609.3268760925323 487.9426565525023) rotate(0 117 44)"><path d="M22 0 C90.48 -0.23, 161.94 0.56, 212 0 M22 0 C89.31 1.25, 157.6 1.13, 212 0 M212 0 C225.9 -0.81, 232.48 7.24, 234 22 M212 0 C225.71 -1.96, 235.71 8.99, 234 22 M234 22 C233.54 35.09, 233.57 43.26, 234 66 M234 22 C233.22 32.46, 233.5 42.28, 234 66 M234 66 C235.7 82.35, 225.36 88.74, 212 88 M234 66 C231.72 80.81, 228.41 89.79, 212 88 M212 88 C149.79 89.45, 86.2 90.37, 22 88 M212 88 C161.76 86.33, 110.44 87.07, 22 88 M22 88 C8.29 88.15, 0.82 82.65, 0 66 M22 88 C7.79 86.17, 0.5 82.41, 0 66 M0 66 C-1.71 50.58, -0.71 35.55, 0 22 M0 66 C-0.63 56.35, -0.88 48.07, 0 22 M0 22 C-0.68 6.92, 5.77 1.4, 22 0 M0 22 C-0.55 5.36, 9.16 -1.88, 22 0" stroke="#2f9e44" stroke-width="2" fill="none"></path></g><g transform="translate(624.8518776184112 506.9426565525023) rotate(0 101.4749984741211 25)"><text x="101.4749984741211" y="0" font-family="Virgil, Segoe UI Emoji" font-size="20px" fill="#2f9e44" text-anchor="middle" style="white-space: pre;" direction="ltr" dominant-baseline="text-before-edge"> running day to day </text><text x="101.4749984741211" y="25" font-family="Virgil, Segoe UI Emoji" font-size="20px" fill="#2f9e44" text-anchor="middle" style="white-space: pre;" direction="ltr" dominant-baseline="text-before-edge">operations</text></g><g stroke-linecap="round" transform="translate(611.7435167219376 591.052656740465) rotate(0 117 44)"><path d="M22 0 C92.27 -0.49, 163.04 0.2, 212 0 M22 0 C81.45 -0.46, 141.86 0.13, 212 0 M212 0 C227.61 1.52, 235.68 9.11, 234 22 M212 0 C228.27 1.33, 234.32 5.55, 234 22 M234 22 C234.39 32.46, 234.92 43.65, 234 66 M234 22 C234.09 35.77, 233.79 50.66, 234 66 M234 66 C235.87 82.24, 226.84 87.59, 212 88 M234 66 C234.37 80.39, 225.24 86.62, 212 88 M212 88 C162.18 88.31, 115.77 87.44, 22 88 M212 88 C172.42 86.83, 134.57 88.08, 22 88 M22 88 C8.78 86.58, 1.32 82.62, 0 66 M22 88 C6.63 88.45, 0.08 80.52, 0 66 M0 66 C2.19 51.27, 0.2 39.6, 0 22 M0 66 C0.15 54.92, -0.49 42.82, 0 22 M0 22 C-0.98 6.25, 9.2 0.29, 22 0 M0 22 C-0.76 9.61, 9.07 0.61, 22 0" stroke="#2f9e44" stroke-width="2" fill="none"></path></g><g transform="translate(624.1101854231094 597.552656740465) rotate(0 104.63333129882812 37.5)"><text x="104.63333129882812" y="0" font-family="Virgil, Segoe UI Emoji" font-size="20px" fill="#2f9e44" text-anchor="middle" style="white-space: pre;" direction="ltr" dominant-baseline="text-before-edge">organizing </text><text x="104.63333129882812" y="25" font-family="Virgil, Segoe UI Emoji" font-size="20px" fill="#2f9e44" text-anchor="middle" style="white-space: pre;" direction="ltr" dominant-baseline="text-before-edge">departmental </text><text x="104.63333129882812" y="50" font-family="Virgil, Segoe UI Emoji" font-size="20px" fill="#2f9e44" text-anchor="middle" style="white-space: pre;" direction="ltr" dominant-baseline="text-before-edge">activities and events</text></g><g stroke-linecap="round" transform="translate(254.8862504464115 384.83265636453973) rotate(0 117 44)"><path d="M22 0 C89.07 -3.46, 158.42 -1.57, 212 0 M22 0 C81.82 2.29, 142.39 1.24, 212 0 M212 0 C224.87 0.98, 233.87 8.45, 234 22 M212 0 C224.63 -1.93, 235.35 5.22, 234 22 M234 22 C236.03 31.04, 232.49 43.61, 234 66 M234 22 C234.46 35.09, 233.92 48.22, 234 66 M234 66 C235.06 80.93, 227.12 86.48, 212 88 M234 66 C234.91 80.92, 228.52 87.52, 212 88 M212 88 C159.23 86.71, 102.89 90, 22 88 M212 88 C165.94 87, 119.58 86.08, 22 88 M22 88 C9.15 89.16, -0.1 79.7, 0 66 M22 88 C9.4 89.87, -1.85 79.45, 0 66 M0 66 C0.77 56.45, 0.39 46.34, 0 22 M0 66 C-0.42 56.4, 0.45 46.57, 0 22 M0 22 C0.31 7.22, 7.15 1.65, 22 0 M0 22 C-0.9 5.67, 5.52 2.06, 22 0" stroke="#1971c2" stroke-width="2" fill="none"></path></g><g transform="translate(270.1612519722904 403.83265636453973) rotate(0 101.7249984741211 25)"><text x="101.7249984741211" y="0" font-family="Virgil, Segoe UI Emoji" font-size="20px" fill="#1971c2" text-anchor="middle" style="white-space: pre;" direction="ltr" dominant-baseline="text-before-edge">evaluating the work </text><text x="101.7249984741211" y="25" font-family="Virgil, Segoe UI Emoji" font-size="20px" fill="#1971c2" text-anchor="middle" style="white-space: pre;" direction="ltr" dominant-baseline="text-before-edge">done</text></g><g stroke-linecap="round" transform="translate(255.69179732287978 486.3315627995654) rotate(0 117 42.5)"><path d="M21.25 0 C61.97 -1.13, 100.21 -0.66, 212.75 0 M21.25 0 C88.32 1.44, 157.12 1.51, 212.75 0 M212.75 0 C225.15 -1.68, 235.18 5.24, 234 21.25 M212.75 0 C225.52 0.69, 234.62 9.27, 234 21.25 M234 21.25 C233.84 32.33, 232.91 40.7, 234 63.75 M234 21.25 C234.36 31.92, 234.05 41.57, 234 63.75 M234 63.75 C234.8 78.13, 228.52 84.58, 212.75 85 M234 63.75 C233.65 76.83, 227.29 86.53, 212.75 85 M212.75 85 C169.45 86.59, 127.18 86.84, 21.25 85 M212.75 85 C152.7 84.17, 90.78 83.11, 21.25 85 M21.25 85 C8.88 86.63, -1.61 76.86, 0 63.75 M21.25 85 C5.79 86.46, -0.01 79.13, 0 63.75 M0 63.75 C-1.89 48.74, -0.64 32.5, 0 21.25 M0 63.75 C-0.06 52, -0.31 41.18, 0 21.25 M0 21.25 C-0.78 5.64, 5.5 1.79, 21.25 0 M0 21.25 C-1.48 7.97, 9.36 -1.13, 21.25 0" stroke="#1971c2" stroke-width="2" fill="none"></path></g><g transform="translate(281.6667957970009 491.3315627995654) rotate(0 91.0250015258789 37.5)"><text x="91.0250015258789" y="0" font-family="Virgil, Segoe UI Emoji" font-size="20px" fill="#1971c2" text-anchor="middle" style="white-space: pre;" direction="ltr" dominant-baseline="text-before-edge">setting and </text><text x="91.0250015258789" y="25" font-family="Virgil, Segoe UI Emoji" font-size="20px" fill="#1971c2" text-anchor="middle" style="white-space: pre;" direction="ltr" dominant-baseline="text-before-edge">communicating the </text><text x="91.0250015258789" y="50" font-family="Virgil, Segoe UI Emoji" font-size="20px" fill="#1971c2" text-anchor="middle" style="white-space: pre;" direction="ltr" dominant-baseline="text-before-edge">deadline</text></g><g stroke-linecap="round" transform="translate(258.91398482875354 587.8304692345912) rotate(0 117.00000000000006 44)"><path d="M22 0 C70.43 0.93, 115.66 -1.27, 212 0 M22 0 C87.39 -1.89, 155.14 -1.98, 212 0 M212 0 C225.45 0.6, 234.54 9.23, 234 22 M212 0 C224.96 -1.88, 234.64 7.55, 234 22 M234 22 C232.79 37.65, 231.85 56.01, 234 66 M234 22 C234.5 35.88, 234.9 49.33, 234 66 M234 66 C233.7 79.72, 226.99 89.33, 212 88 M234 66 C232.16 79.63, 228.61 86.69, 212 88 M212 88 C155.66 88.06, 97.11 90.03, 22 88 M212 88 C144.91 87.89, 75.21 86.55, 22 88 M22 88 C6.21 89.27, -0.01 81.72, 0 66 M22 88 C8.69 88.77, 2.06 78.65, 0 66 M0 66 C-0.39 53.27, -1.35 38.83, 0 22 M0 66 C-0.35 52.33, -0.75 41, 0 22 M0 22 C-1.29 8.11, 9.31 -0.98, 22 0 M0 22 C-0.14 7.21, 8.54 -1.76, 22 0" stroke="#1971c2" stroke-width="2" fill="none"></path></g><g transform="translate(272.8723207052184 606.8304692345912) rotate(0 103.04166412353516 25)"><text x="103.04166412353516" y="0" font-family="Virgil, Segoe UI Emoji" font-size="20px" fill="#1971c2" text-anchor="middle" style="white-space: pre;" direction="ltr" dominant-baseline="text-before-edge">organizing workshops </text><text x="103.04166412353516" y="25" font-family="Virgil, Segoe UI Emoji" font-size="20px" fill="#1971c2" text-anchor="middle" style="white-space: pre;" direction="ltr" dominant-baseline="text-before-edge">on the project</text></g><g stroke-linecap="round" transform="translate(10 385.63820324100834) rotate(0 117 44)"><path d="M22 0 C72.41 0.44, 122.31 -2.11, 212 0 M22 0 C81.54 -1.66, 141.55 -0.48, 212 0 M212 0 C226.91 0.72, 233.24 8.97, 234 22 M212 0 C224.53 1.46, 234.06 8.65, 234 22 M234 22 C235.94 34.78, 233.62 50.2, 234 66 M234 22 C234.49 34.46, 234.29 46.23, 234 66 M234 66 C234.25 79.02, 227.02 87.87, 212 88 M234 66 C236.29 80.45, 225.32 88.49, 212 88 M212 88 C163.33 90.35, 117.16 89.52, 22 88 M212 88 C160.55 86.57, 107.78 86.82, 22 88 M22 88 C7.79 87.46, 0.31 81.77, 0 66 M22 88 C7.43 89.39, -0.77 81.14, 0 66 M0 66 C1.32 54.05, -1.11 39.21, 0 22 M0 66 C-0.41 53.33, 0.63 41.68, 0 22 M0 22 C-1.22 6.31, 9 -1.36, 22 0 M0 22 C-2.19 9.25, 5.94 -1.37, 22 0" stroke="#1971c2" stroke-width="2" fill="none"></path></g><g transform="translate(17.099998474121094 404.63820324100834) rotate(0 109.9000015258789 25)"><text x="109.9000015258789" y="0" font-family="Virgil, Segoe UI Emoji" font-size="20px" fill="#1971c2" text-anchor="middle" style="white-space: pre;" direction="ltr" dominant-baseline="text-before-edge">communicating with the</text><text x="109.9000015258789" y="25" font-family="Virgil, Segoe UI Emoji" font-size="20px" fill="#1971c2" text-anchor="middle" style="white-space: pre;" direction="ltr" dominant-baseline="text-before-edge">client</text></g><g stroke-linecap="round" transform="translate(10.80554687646827 486.33156279956563) rotate(0 117 44)"><path d="M22 0 C95.61 0.99, 169.71 -0.33, 212 0 M22 0 C68.1 -0.8, 113.58 -0.34, 212 0 M212 0 C224.81 1.27, 234.05 8.48, 234 22 M212 0 C227.26 0.21, 235.56 9.52, 234 22 M234 22 C233.38 31.8, 235.89 42.49, 234 66 M234 22 C234.25 36.2, 234.3 51.99, 234 66 M234 66 C235.99 80.48, 225.5 88.42, 212 88 M234 66 C232.76 78.83, 227.26 85.82, 212 88 M212 88 C136.78 90.7, 61.4 90.05, 22 88 M212 88 C160.29 87.69, 108.26 88.52, 22 88 M22 88 C7.41 89.21, -0.67 81.08, 0 66 M22 88 C7.25 89.02, -0.16 82.41, 0 66 M0 66 C-0.34 50.15, -1.02 33.9, 0 22 M0 66 C-0.86 55.24, 0.58 44.81, 0 22 M0 22 C-1.91 9, 6.12 -1.19, 22 0 M0 22 C-1.44 6.62, 8.54 0.55, 22 0" stroke="#1971c2" stroke-width="2" fill="none"></path></g><g transform="translate(18.797215577640145 505.33156279956563) rotate(0 109.00833129882812 25)"><text x="109.00833129882812" y="0" font-family="Virgil, Segoe UI Emoji" font-size="20px" fill="#1971c2" text-anchor="middle" style="white-space: pre;" direction="ltr" dominant-baseline="text-before-edge">product’s delivery and</text><text x="109.00833129882812" y="25" font-family="Virgil, Segoe UI Emoji" font-size="20px" fill="#1971c2" text-anchor="middle" style="white-space: pre;" direction="ltr" dominant-baseline="text-before-edge">quality</text></g><g stroke-linecap="round" transform="translate(13.222187505873535 590.2471098639967) rotate(0 117 44)"><path d="M22 0 C79.63 -0.26, 140.8 1.31, 212 0 M22 0 C84.91 -0.92, 149.71 -0.98, 212 0 M212 0 C227.19 0.18, 235.36 9.23, 234 22 M212 0 C224.87 -0.48, 233.44 6.73, 234 22 M234 22 C235.27 35.86, 234.73 48.83, 234 66 M234 22 C235.07 31.47, 233.49 41.35, 234 66 M234 66 C232.92 79.07, 227.18 86.11, 212 88 M234 66 C236.14 79.2, 227.85 87.39, 212 88 M212 88 C138.15 88.52, 65.32 89.48, 22 88 M212 88 C160.2 89.65, 107.99 89.25, 22 88 M22 88 C7.26 88.89, -0.14 82.18, 0 66 M22 88 C8.58 86.95, -0.82 80.04, 0 66 M0 66 C-1.07 54.53, -0.37 39.57, 0 22 M0 66 C-1.32 55.88, -0.97 43.49, 0 22 M0 22 C-1.25 6.71, 8.38 0.48, 22 0 M0 22 C-1.6 5.23, 5.14 0.77, 22 0" stroke="#1971c2" stroke-width="2" fill="none"></path></g><g transform="translate(24.905521856459472 621.7471098639967) rotate(0 105.31666564941406 12.5)"><text x="105.31666564941406" y="0" font-family="Virgil, Segoe UI Emoji" font-size="20px" fill="#1971c2" text-anchor="middle" style="white-space: pre;" direction="ltr" dominant-baseline="text-before-edge">allocating the budget</text></g></svg>